<svg width="330" height="331" viewBox="0 0 330 331" xmlns="http://www.w3.org/2000/svg"><path d="M43.8.4h242.8A43.4 43.4 0 0 1 330 43.8v242.9a43.4 43.4 0 0 1-43.4 43.4H43.8A43.4 43.4 0 0 1 .4 286.7v-243A43.3 43.3 0 0 1 43.8.4zM169 83.7a93.1 93.1 0 1 0 0 186.3 93.1 93.1 0 0 0 0-186.3zm0 158.8a65.6 65.6 0 1 1 0-131.3 65.6 65.6 0 0 1 0 131.3zm0-117.8v48.9c0 1.4 1.5 2.4 2.8 1.7l43.4-22.5c1-.5 1.3-1.7.8-2.7a54 54 0 0 0-45-27.3c-1 0-2 .8-2 1.9zm-60.8-35.9l-5.7-5.7a14.2 14.2 0 0 0-20.2 0l-6.8 6.8a14.2 14.2 0 0 0 0 20.2l5.6 5.6c.9.9 2.2.7 3-.2a110 110 0 0 1 23.8-23.8c1-.6 1.1-2 .3-2.9zM199.5 74V62.7c0-7.9-6.4-14.3-14.3-14.3h-33.3c-7.9 0-14.3 6.4-14.3 14.3v11.6c0 1.3 1.2 2.2 2.5 1.9a104.2 104.2 0 0 1 57-.3 2 2 0 0 0 2.4-1.9z" fill="#000" fill-rule="evenodd"/></svg>
